<?xml version="1.0" encoding="iso-8859-1"?>
<!-- Generator: Adobe Illustrator 19.1.0, SVG Export Plug-In . SVG Version: 6.00 Build 0)  -->
<svg xmlns="http://www.w3.org/2000/svg" xmlns:xlink="http://www.w3.org/1999/xlink" version="1.1" id="Capa_1" x="0px" y="0px" viewBox="0 0 425.343 425.343" style="enable-background:new 0 0 425.343 425.343;" xml:space="preserve" width="512px" height="512px">
<g>
	<path d="M425.343,391.689L279.345,264.857c21.245-26.74,33.955-60.55,33.955-97.277c0-86.377-70.273-156.65-156.65-156.65   S0,81.203,0,167.58s70.273,156.65,156.65,156.65c38.82,0,74.381-14.2,101.778-37.67l147.174,127.853L425.343,391.689z    M156.65,304.23C81.301,304.23,20,242.929,20,167.58S81.301,30.93,156.65,30.93c75.35,0,136.65,61.301,136.65,136.65   S232,304.23,156.65,304.23z" fill="#c7c1c7"/>
</g>
<g>
</g>
<g>
</g>
<g>
</g>
<g>
</g>
<g>
</g>
<g>
</g>
<g>
</g>
<g>
</g>
<g>
</g>
<g>
</g>
<g>
</g>
<g>
</g>
<g>
</g>
<g>
</g>
<g>
</g>
</svg>
